<svg xmlns="http://www.w3.org/2000/svg" xmlns:xlink="http://www.w3.org/1999/xlink" width="1920" zoomAndPan="magnify" viewBox="0 0 1440 809.999993" height="1080" preserveAspectRatio="xMidYMid meet" version="1.0"><defs><clipPath id="efd9c33bca"><path d="M 517.480469 230.84375 L 922.480469 230.84375 L 922.480469 629.09375 L 517.480469 629.09375 Z M 517.480469 230.84375 " clip-rule="nonzero"/></clipPath><clipPath id="1ac1df0922"><path d="M 517.480469 232 L 917 232 L 917 627 L 517.480469 627 Z M 517.480469 232 " clip-rule="nonzero"/></clipPath></defs><path fill="#c6302c" d="M 1132.449219 245.945312 C 1085.652344 5.160156 792.351562 1.136719 720.027344 226.230469 C 647.703125 1.140625 354.390625 5.160156 307.605469 245.945312 C 265.148438 464.402344 720.027344 809.058594 720.027344 809.058594 C 720.027344 809.058594 1174.902344 464.402344 1132.449219 245.945312 Z M 1132.449219 245.945312 " fill-opacity="1" fill-rule="nonzero"/><g clip-path="url(#efd9c33bca)"><path fill="#c6302c" d="M 1078.808594 429.480469 C 1078.808594 434.984375 1078.671875 440.488281 1078.402344 445.984375 C 1078.132812 451.484375 1077.726562 456.972656 1077.1875 462.453125 C 1076.648438 467.929688 1075.976562 473.390625 1075.167969 478.835938 C 1074.359375 484.28125 1073.417969 489.703125 1072.34375 495.105469 C 1071.269531 500.503906 1070.066406 505.875 1068.726562 511.214844 C 1067.390625 516.554688 1065.921875 521.855469 1064.324219 527.125 C 1062.726562 532.394531 1061 537.617188 1059.144531 542.800781 C 1057.289062 547.984375 1055.308594 553.121094 1053.203125 558.207031 C 1051.097656 563.292969 1048.867188 568.324219 1046.511719 573.300781 C 1044.160156 578.277344 1041.683594 583.191406 1039.089844 588.046875 C 1036.496094 592.902344 1033.78125 597.691406 1030.953125 602.410156 C 1028.121094 607.132812 1025.175781 611.785156 1022.117188 616.359375 C 1019.058594 620.9375 1015.890625 625.4375 1012.613281 629.859375 C 1009.332031 634.28125 1005.945312 638.621094 1002.453125 642.875 C 998.960938 647.128906 995.367188 651.296875 991.671875 655.375 C 987.972656 659.457031 984.179688 663.441406 980.285156 667.332031 C 976.394531 671.226562 972.40625 675.019531 968.328125 678.71875 C 964.25 682.414062 960.082031 686.011719 955.828125 689.503906 C 951.570312 692.996094 947.234375 696.378906 942.8125 699.660156 C 938.390625 702.9375 933.890625 706.109375 929.3125 709.167969 C 924.734375 712.226562 920.085938 715.167969 915.363281 718 C 910.640625 720.828125 905.855469 723.542969 901 726.136719 C 896.144531 728.730469 891.226562 731.207031 886.25 733.558594 C 881.273438 735.914062 876.242188 738.144531 871.15625 740.25 C 866.070312 742.355469 860.9375 744.339844 855.753906 746.191406 C 850.570312 748.046875 845.34375 749.773438 840.078125 751.371094 C 834.808594 752.96875 829.503906 754.4375 824.164062 755.773438 C 818.824219 757.113281 813.457031 758.320312 808.054688 759.390625 C 802.65625 760.464844 797.234375 761.40625 791.789062 762.214844 C 786.34375 763.023438 780.882812 763.695312 775.402344 764.234375 C 769.925781 764.777344 764.4375 765.179688 758.9375 765.449219 C 753.441406 765.71875 747.9375 765.855469 742.433594 765.855469 C 736.929688 765.855469 731.425781 765.71875 725.929688 765.449219 C 720.429688 765.179688 714.941406 764.777344 709.460938 764.234375 C 703.984375 763.695312 698.523438 763.023438 693.078125 762.214844 C 687.632812 761.40625 682.207031 760.464844 676.808594 759.390625 C 671.410156 758.320312 666.039062 757.113281 660.699219 755.773438 C 655.359375 754.4375 650.054688 752.96875 644.789062 751.371094 C 639.519531 749.773438 634.292969 748.046875 629.113281 746.191406 C 623.929688 744.339844 618.792969 742.355469 613.707031 740.25 C 608.621094 738.144531 603.589844 735.914062 598.613281 733.558594 C 593.636719 731.207031 588.722656 728.730469 583.867188 726.136719 C 579.011719 723.542969 574.222656 720.828125 569.5 718 C 564.78125 715.167969 560.128906 712.226562 555.554688 709.167969 C 550.976562 706.109375 546.476562 702.9375 542.054688 699.660156 C 537.632812 696.378906 533.292969 692.996094 529.039062 689.503906 C 524.785156 686.011719 520.617188 682.414062 516.539062 678.71875 C 512.457031 675.019531 508.472656 671.226562 504.578125 667.332031 C 500.6875 663.441406 496.890625 659.457031 493.195312 655.375 C 489.5 651.296875 485.902344 647.128906 482.410156 642.875 C 478.917969 638.621094 475.535156 634.28125 472.253906 629.859375 C 468.976562 625.4375 465.804688 620.9375 462.746094 616.359375 C 459.6875 611.785156 456.746094 607.132812 453.914062 602.410156 C 451.085938 597.691406 448.371094 592.902344 445.777344 588.046875 C 443.179688 583.191406 440.707031 578.277344 438.355469 573.300781 C 436 568.324219 433.769531 563.292969 431.664062 558.207031 C 429.554688 553.121094 427.574219 547.984375 425.722656 542.800781 C 423.867188 537.617188 422.140625 532.394531 420.542969 527.125 C 418.945312 521.855469 417.476562 516.554688 416.140625 511.214844 C 414.800781 505.875 413.59375 500.503906 412.519531 495.105469 C 411.449219 489.703125 410.507812 484.28125 409.699219 478.835938 C 408.890625 473.390625 408.21875 467.929688 407.675781 462.453125 C 407.136719 456.972656 406.734375 451.484375 406.464844 445.984375 C 406.191406 440.488281 406.058594 434.984375 406.058594 429.480469 C 406.058594 423.976562 406.191406 418.472656 406.464844 412.976562 C 406.734375 407.476562 407.136719 401.988281 407.675781 396.511719 C 408.21875 391.03125 408.890625 385.570312 409.699219 380.125 C 410.507812 374.679688 411.449219 369.257812 412.519531 363.855469 C 413.59375 358.457031 414.800781 353.089844 416.140625 347.75 C 417.476562 342.410156 418.945312 337.105469 420.542969 331.835938 C 422.140625 326.566406 423.867188 321.34375 425.722656 316.160156 C 427.574219 310.976562 429.554688 305.839844 431.664062 300.753906 C 433.769531 295.667969 436 290.636719 438.355469 285.660156 C 440.707031 280.683594 443.179688 275.769531 445.777344 270.914062 C 448.371094 266.058594 451.085938 261.269531 453.914062 256.550781 C 456.746094 251.828125 459.6875 247.179688 462.746094 242.601562 C 465.804688 238.023438 468.976562 233.523438 472.253906 229.101562 C 475.535156 224.679688 478.917969 220.34375 482.410156 216.085938 C 485.902344 211.832031 489.5 207.664062 493.195312 203.585938 C 496.890625 199.507812 500.6875 195.519531 504.578125 191.628906 C 508.472656 187.734375 512.457031 183.941406 516.539062 180.242188 C 520.617188 176.546875 524.785156 172.953125 529.039062 169.460938 C 533.292969 165.96875 537.632812 162.582031 542.054688 159.300781 C 546.476562 156.023438 550.976562 152.855469 555.554688 149.796875 C 560.128906 146.738281 564.78125 143.792969 569.5 140.960938 C 574.222656 138.132812 579.011719 135.417969 583.867188 132.824219 C 588.722656 130.230469 593.636719 127.753906 598.613281 125.402344 C 603.589844 123.046875 608.621094 120.816406 613.707031 118.710938 C 618.792969 116.605469 623.929688 114.625 629.113281 112.769531 C 634.292969 110.914062 639.519531 109.1875 644.789062 107.589844 C 650.054688 105.992188 655.359375 104.523438 660.699219 103.1875 C 666.039062 101.847656 671.410156 100.644531 676.808594 99.570312 C 682.207031 98.496094 687.632812 97.554688 693.078125 96.746094 C 698.523438 95.9375 703.984375 95.265625 709.460938 94.726562 C 714.941406 94.1875 720.429688 93.78125 725.929688 93.511719 C 731.425781 93.242188 736.929688 93.105469 742.433594 93.105469 C 747.9375 93.105469 753.441406 93.242188 758.9375 93.511719 C 764.4375 93.78125 769.925781 94.1875 775.402344 94.726562 C 780.882812 95.265625 786.34375 95.9375 791.789062 96.746094 C 797.234375 97.554688 802.65625 98.496094 808.054688 99.570312 C 813.457031 100.644531 818.824219 101.847656 824.164062 103.1875 C 829.503906 104.523438 834.808594 105.992188 840.078125 107.589844 C 845.34375 109.1875 850.570312 110.914062 855.753906 112.769531 C 860.9375 114.625 866.070312 116.605469 871.15625 118.710938 C 876.242188 120.816406 881.273438 123.046875 886.25 125.402344 C 891.226562 127.753906 896.144531 130.230469 901 132.824219 C 905.855469 135.417969 910.640625 138.132812 915.363281 140.960938 C 920.085938 143.792969 924.734375 146.738281 929.3125 149.796875 C 933.890625 152.855469 938.390625 156.023438 942.8125 159.300781 C 947.234375 162.582031 951.570312 165.96875 955.828125 169.460938 C 960.082031 172.953125 964.25 176.546875 968.328125 180.242188 C 972.40625 183.941406 976.394531 187.734375 980.285156 191.628906 C 984.179688 195.519531 987.972656 199.507812 991.671875 203.585938 C 995.367188 207.664062 998.960938 211.832031 1002.453125 216.085938 C 1005.945312 220.34375 1009.332031 224.679688 1012.613281 229.101562 C 1015.890625 233.523438 1019.058594 238.023438 1022.117188 242.601562 C 1025.175781 247.179688 1028.121094 251.828125 1030.953125 256.550781 C 1033.78125 261.269531 1036.496094 266.058594 1039.089844 270.914062 C 1041.683594 275.769531 1044.160156 280.683594 1046.511719 285.660156 C 1048.867188 290.636719 1051.097656 295.667969 1053.203125 300.753906 C 1055.308594 305.839844 1057.289062 310.976562 1059.144531 316.160156 C 1061 321.34375 1062.726562 326.566406 1064.324219 331.835938 C 1065.921875 337.105469 1067.390625 342.410156 1068.726562 347.75 C 1070.066406 353.089844 1071.269531 358.457031 1072.34375 363.855469 C 1073.417969 369.257812 1074.359375 374.679688 1075.167969 380.125 C 1075.976562 385.570312 1076.648438 391.03125 1077.1875 396.511719 C 1077.726562 401.988281 1078.132812 407.476562 1078.402344 412.976562 C 1078.671875 418.472656 1078.808594 423.976562 1078.808594 429.480469 Z M 1078.808594 429.480469 " fill-opacity="1" fill-rule="nonzero"/></g><g clip-path="url(#1ac1df0922)"><path fill="#ffffff" d="M 849.183594 491.972656 C 846.710938 491.96875 844.25 492.101562 841.796875 492.371094 C 839.339844 492.640625 836.90625 493.042969 834.496094 493.578125 C 832.085938 494.117188 829.714844 494.785156 827.375 495.582031 C 825.039062 496.382812 822.753906 497.308594 820.519531 498.359375 C 818.285156 499.410156 816.113281 500.578125 814.007812 501.871094 C 811.902344 503.160156 809.875 504.5625 807.925781 506.074219 C 805.972656 507.589844 804.109375 509.207031 802.339844 510.925781 C 800.566406 512.644531 798.894531 514.457031 797.320312 516.359375 L 651.363281 447.222656 C 652.1875 442.964844 652.601562 438.664062 652.609375 434.324219 C 652.605469 429.308594 652.046875 424.355469 650.933594 419.464844 L 798.546875 344.113281 C 799.40625 345.089844 800.292969 346.042969 801.203125 346.964844 C 802.117188 347.890625 803.058594 348.789062 804.023438 349.660156 C 804.988281 350.53125 805.980469 351.371094 806.992188 352.183594 C 808.007812 352.996094 809.046875 353.78125 810.105469 354.53125 C 811.164062 355.285156 812.246094 356.007812 813.347656 356.699219 C 814.449219 357.386719 815.570312 358.046875 816.710938 358.671875 C 817.847656 359.296875 819.007812 359.886719 820.179688 360.445312 C 821.355469 361.003906 822.542969 361.527344 823.75 362.019531 C 824.953125 362.507812 826.171875 362.960938 827.402344 363.378906 C 828.632812 363.800781 829.875 364.183594 831.125 364.527344 C 832.378906 364.875 833.640625 365.1875 834.910156 365.460938 C 836.183594 365.734375 837.460938 365.96875 838.746094 366.167969 C 840.03125 366.371094 841.320312 366.53125 842.613281 366.65625 C 843.90625 366.78125 845.203125 366.867188 846.503906 366.917969 C 847.800781 366.96875 849.101562 366.980469 850.402344 366.953125 C 851.699219 366.929688 853 366.867188 854.296875 366.765625 C 855.589844 366.664062 856.882812 366.527344 858.171875 366.351562 C 859.460938 366.175781 860.742188 365.960938 862.015625 365.710938 C 863.292969 365.460938 864.5625 365.175781 865.820312 364.851562 C 867.078125 364.527344 868.328125 364.167969 869.566406 363.773438 C 870.804688 363.378906 872.03125 362.945312 873.242188 362.480469 C 874.457031 362.011719 875.65625 361.511719 876.839844 360.976562 C 878.023438 360.4375 879.191406 359.867188 880.34375 359.265625 C 881.496094 358.660156 882.628906 358.023438 883.742188 357.355469 C 884.855469 356.683594 885.949219 355.984375 887.023438 355.25 C 888.097656 354.515625 889.148438 353.753906 890.179688 352.960938 C 891.207031 352.164062 892.214844 351.34375 893.195312 350.492188 C 894.175781 349.636719 895.132812 348.757812 896.0625 347.851562 C 896.996094 346.941406 897.898438 346.007812 898.773438 345.050781 C 899.652344 344.089844 900.5 343.105469 901.320312 342.09375 C 902.136719 341.085938 902.929688 340.054688 903.6875 339 C 904.449219 337.945312 905.175781 336.867188 905.875 335.769531 C 906.570312 334.671875 907.234375 333.558594 907.867188 332.421875 C 908.5 331.285156 909.101562 330.132812 909.667969 328.960938 C 910.230469 327.792969 910.765625 326.605469 911.261719 325.40625 C 911.757812 324.203125 912.21875 322.988281 912.648438 321.761719 C 913.074219 320.53125 913.464844 319.292969 913.820312 318.042969 C 914.175781 316.792969 914.492188 315.53125 914.773438 314.261719 C 915.054688 312.992188 915.300781 311.71875 915.507812 310.433594 C 915.714844 309.152344 915.886719 307.863281 916.019531 306.570312 C 916.152344 305.277344 916.25 303.980469 916.308594 302.683594 C 916.367188 301.382812 916.386719 300.082031 916.367188 298.785156 C 916.351562 297.484375 916.296875 296.1875 916.203125 294.890625 C 916.113281 293.59375 915.980469 292.300781 915.816406 291.011719 C 915.648438 289.71875 915.441406 288.4375 915.203125 287.160156 C 914.960938 285.882812 914.679688 284.613281 914.367188 283.351562 C 914.050781 282.089844 913.699219 280.839844 913.3125 279.597656 C 912.921875 278.359375 912.5 277.128906 912.042969 275.914062 C 911.582031 274.695312 911.089844 273.496094 910.558594 272.308594 C 910.03125 271.121094 909.46875 269.949219 908.871094 268.792969 C 908.273438 267.636719 907.644531 266.5 906.984375 265.382812 C 906.320312 264.265625 905.625 263.164062 904.902344 262.085938 C 904.175781 261.007812 903.417969 259.953125 902.628906 258.917969 C 901.84375 257.882812 901.027344 256.871094 900.179688 255.886719 C 899.335938 254.898438 898.460938 253.9375 897.558594 253 C 896.65625 252.0625 895.730469 251.152344 894.777344 250.269531 C 893.820312 249.386719 892.84375 248.535156 891.839844 247.707031 C 890.835938 246.882812 889.808594 246.085938 888.757812 245.320312 C 887.707031 244.550781 886.636719 243.816406 885.542969 243.113281 C 884.449219 242.40625 883.339844 241.734375 882.207031 241.09375 C 881.074219 240.457031 879.925781 239.847656 878.757812 239.273438 C 877.59375 238.703125 876.410156 238.164062 875.210938 237.65625 C 874.015625 237.152344 872.800781 236.683594 871.578125 236.25 C 870.351562 235.8125 869.113281 235.414062 867.867188 235.050781 C 866.617188 234.691406 865.359375 234.363281 864.09375 234.074219 C 862.824219 233.78125 861.550781 233.53125 860.269531 233.3125 C 858.988281 233.097656 857.699219 232.917969 856.40625 232.777344 C 855.117188 232.636719 853.820312 232.53125 852.523438 232.464844 C 851.222656 232.398438 849.925781 232.371094 848.625 232.378906 C 847.324219 232.386719 846.027344 232.433594 844.726562 232.519531 C 843.429688 232.601562 842.136719 232.722656 840.847656 232.882812 C 839.558594 233.042969 838.273438 233.238281 836.992188 233.472656 C 835.714844 233.703125 834.445312 233.976562 833.179688 234.28125 C 831.917969 234.589844 830.664062 234.933594 829.421875 235.3125 C 828.175781 235.691406 826.945312 236.109375 825.726562 236.558594 C 824.507812 237.011719 823.300781 237.496094 822.109375 238.015625 C 820.917969 238.539062 819.746094 239.09375 818.585938 239.683594 C 817.425781 240.269531 816.285156 240.894531 815.164062 241.546875 C 814.039062 242.203125 812.9375 242.890625 811.855469 243.609375 C 810.769531 244.328125 809.710938 245.078125 808.671875 245.859375 C 807.632812 246.640625 806.613281 247.449219 805.621094 248.289062 C 804.628906 249.128906 803.660156 249.996094 802.71875 250.894531 C 801.777344 251.789062 800.863281 252.710938 799.972656 253.660156 C 799.085938 254.609375 798.222656 255.582031 797.390625 256.578125 C 796.558594 257.578125 795.753906 258.601562 794.980469 259.644531 C 794.207031 260.691406 793.464844 261.757812 792.753906 262.84375 C 792.042969 263.933594 791.363281 265.039062 790.71875 266.167969 C 790.070312 267.296875 789.457031 268.441406 788.875 269.605469 C 788.292969 270.765625 787.746094 271.945312 787.234375 273.140625 C 786.722656 274.335938 786.246094 275.542969 785.800781 276.765625 C 785.359375 277.988281 784.953125 279.222656 784.582031 280.46875 C 784.210938 281.714844 783.875 282.972656 783.578125 284.234375 C 783.28125 285.5 783.019531 286.773438 782.792969 288.054688 C 782.570312 289.335938 782.382812 290.621094 782.234375 291.914062 C 782.082031 293.203125 781.96875 294.5 781.894531 295.796875 C 781.820312 297.09375 781.785156 298.394531 781.785156 299.695312 C 781.792969 304.703125 782.34375 309.648438 783.441406 314.535156 L 635.703125 389.90625 C 634.953125 389.050781 634.179688 388.214844 633.386719 387.398438 C 632.59375 386.582031 631.777344 385.789062 630.945312 385.011719 C 630.109375 384.238281 629.253906 383.484375 628.382812 382.753906 C 627.511719 382.023438 626.621094 381.316406 625.710938 380.628906 C 624.804688 379.945312 623.878906 379.28125 622.9375 378.640625 C 621.992188 378.003906 621.035156 377.386719 620.0625 376.796875 C 619.089844 376.207031 618.101562 375.640625 617.097656 375.101562 C 616.097656 374.5625 615.082031 374.046875 614.054688 373.558594 C 613.027344 373.070312 611.984375 372.605469 610.933594 372.171875 C 609.882812 371.734375 608.820312 371.328125 607.75 370.945312 C 606.675781 370.5625 605.59375 370.207031 604.503906 369.878906 C 603.414062 369.554688 602.316406 369.253906 601.210938 368.980469 C 600.105469 368.710938 598.992188 368.46875 597.875 368.253906 C 596.757812 368.039062 595.636719 367.851562 594.507812 367.691406 C 593.378906 367.535156 592.25 367.40625 591.117188 367.304688 C 589.980469 367.203125 588.847656 367.132812 587.707031 367.089844 C 586.570312 367.046875 585.433594 367.03125 584.292969 367.046875 C 583.15625 367.0625 582.019531 367.105469 580.882812 367.175781 C 579.746094 367.25 578.613281 367.351562 577.484375 367.480469 C 576.351562 367.609375 575.222656 367.769531 574.101562 367.957031 C 572.980469 368.144531 571.859375 368.359375 570.75 368.601562 C 569.636719 368.847656 568.53125 369.117188 567.433594 369.417969 C 566.335938 369.71875 565.246094 370.046875 564.164062 370.402344 C 563.082031 370.753906 562.011719 371.136719 560.949219 371.546875 C 559.886719 371.957031 558.835938 372.394531 557.796875 372.855469 C 556.753906 373.320312 555.726562 373.808594 554.710938 374.324219 C 553.699219 374.839844 552.695312 375.378906 551.707031 375.945312 C 550.71875 376.511719 549.746094 377.101562 548.789062 377.71875 C 547.832031 378.332031 546.890625 378.972656 545.964844 379.632812 C 545.039062 380.296875 544.132812 380.984375 543.242188 381.691406 C 542.351562 382.402344 541.480469 383.132812 540.625 383.886719 C 539.773438 384.640625 538.9375 385.414062 538.125 386.210938 C 537.308594 387.007812 536.515625 387.820312 535.742188 388.65625 C 534.972656 389.492188 534.21875 390.347656 533.492188 391.222656 C 532.761719 392.097656 532.054688 392.988281 531.371094 393.898438 C 530.6875 394.808594 530.027344 395.734375 529.390625 396.679688 C 528.753906 397.621094 528.140625 398.582031 527.550781 399.554688 C 526.964844 400.53125 526.398438 401.519531 525.863281 402.523438 C 525.324219 403.527344 524.8125 404.542969 524.324219 405.570312 C 523.835938 406.601562 523.378906 407.640625 522.945312 408.695312 C 522.511719 409.746094 522.101562 410.808594 521.722656 411.882812 C 521.34375 412.957031 520.992188 414.039062 520.667969 415.128906 C 520.339844 416.21875 520.042969 417.316406 519.773438 418.425781 C 519.507812 419.53125 519.265625 420.640625 519.050781 421.761719 C 518.839844 422.878906 518.65625 424.003906 518.5 425.128906 C 518.34375 426.257812 518.214844 427.386719 518.117188 428.523438 C 518.019531 429.65625 517.949219 430.792969 517.910156 431.929688 C 517.871094 433.066406 517.855469 434.207031 517.875 435.34375 C 517.890625 436.484375 517.9375 437.621094 518.011719 438.753906 C 518.085938 439.890625 518.191406 441.023438 518.324219 442.15625 C 518.453125 443.285156 518.617188 444.414062 518.804688 445.535156 C 518.996094 446.65625 519.210938 447.773438 519.457031 448.886719 C 519.703125 449.996094 519.980469 451.101562 520.28125 452.199219 C 520.582031 453.296875 520.914062 454.386719 521.269531 455.46875 C 521.628906 456.546875 522.011719 457.621094 522.425781 458.679688 C 522.835938 459.742188 523.273438 460.792969 523.738281 461.832031 C 524.203125 462.871094 524.695312 463.898438 525.214844 464.910156 C 525.730469 465.925781 526.273438 466.925781 526.839844 467.910156 C 527.410156 468.898438 528 469.871094 528.617188 470.828125 C 529.234375 471.78125 529.878906 472.722656 530.542969 473.648438 C 531.207031 474.570312 531.894531 475.476562 532.605469 476.367188 C 533.316406 477.253906 534.050781 478.125 534.804688 478.976562 C 535.5625 479.828125 536.335938 480.660156 537.132812 481.472656 C 537.933594 482.285156 538.75 483.078125 539.585938 483.847656 C 540.425781 484.621094 541.28125 485.371094 542.15625 486.097656 C 543.03125 486.824219 543.925781 487.53125 544.835938 488.210938 C 545.75 488.894531 546.675781 489.550781 547.621094 490.1875 C 548.566406 490.824219 549.527344 491.433594 550.503906 492.019531 C 551.476562 492.605469 552.46875 493.167969 553.472656 493.703125 C 554.476562 494.238281 555.492188 494.75 556.523438 495.234375 C 557.554688 495.71875 558.597656 496.175781 559.648438 496.609375 C 560.703125 497.039062 561.765625 497.445312 562.839844 497.820312 C 563.914062 498.199219 564.996094 498.550781 566.089844 498.871094 C 567.179688 499.195312 568.28125 499.488281 569.386719 499.757812 C 570.492188 500.023438 571.605469 500.261719 572.726562 500.472656 C 573.84375 500.683594 574.96875 500.863281 576.09375 501.019531 C 577.222656 501.171875 578.355469 501.296875 579.488281 501.390625 C 580.621094 501.488281 581.757812 501.554688 582.898438 501.59375 C 584.035156 501.632812 585.171875 501.640625 586.3125 501.621094 C 587.449219 501.601562 588.585938 501.554688 589.722656 501.476562 C 590.859375 501.398438 591.992188 501.292969 593.121094 501.160156 C 594.25 501.023438 595.378906 500.863281 596.5 500.667969 C 597.621094 500.476562 598.738281 500.257812 599.847656 500.007812 C 600.960938 499.761719 602.0625 499.484375 603.160156 499.179688 C 604.257812 498.875 605.347656 498.542969 606.425781 498.183594 C 607.507812 497.824219 608.578125 497.4375 609.636719 497.023438 C 610.699219 496.609375 611.746094 496.167969 612.785156 495.699219 C 613.824219 495.234375 614.847656 494.742188 615.863281 494.222656 C 616.875 493.703125 617.875 493.15625 618.859375 492.585938 C 619.84375 492.015625 620.816406 491.421875 621.769531 490.804688 C 622.726562 490.183594 623.664062 489.539062 624.585938 488.875 C 625.507812 488.207031 626.414062 487.515625 627.300781 486.804688 C 628.191406 486.089844 629.058594 485.355469 629.910156 484.597656 C 630.757812 483.84375 631.589844 483.066406 632.402344 482.265625 C 633.210938 481.464844 634 480.648438 634.769531 479.808594 C 635.539062 478.96875 636.289062 478.109375 637.011719 477.234375 L 783.03125 546.367188 C 782.8125 547.496094 782.621094 548.625 782.457031 549.761719 C 782.296875 550.894531 782.160156 552.035156 782.058594 553.175781 C 781.953125 554.316406 781.878906 555.460938 781.832031 556.609375 C 781.789062 557.753906 781.769531 558.898438 781.785156 560.046875 C 781.796875 561.195312 781.839844 562.339844 781.910156 563.484375 C 781.980469 564.628906 782.082031 565.769531 782.210938 566.910156 C 782.34375 568.050781 782.5 569.183594 782.6875 570.316406 C 782.875 571.449219 783.09375 572.574219 783.339844 573.695312 C 783.585938 574.8125 783.859375 575.925781 784.160156 577.035156 C 784.460938 578.140625 784.792969 579.238281 785.152344 580.328125 C 785.511719 581.417969 785.894531 582.496094 786.308594 583.566406 C 786.722656 584.636719 787.164062 585.695312 787.632812 586.742188 C 788.097656 587.789062 788.59375 588.820312 789.113281 589.84375 C 789.632812 590.867188 790.179688 591.875 790.753906 592.867188 C 791.324219 593.863281 791.921875 594.839844 792.542969 595.804688 C 793.167969 596.765625 793.8125 597.714844 794.484375 598.644531 C 795.152344 599.574219 795.847656 600.488281 796.566406 601.382812 C 797.28125 602.277344 798.019531 603.152344 798.785156 604.011719 C 799.546875 604.867188 800.328125 605.707031 801.132812 606.523438 C 801.9375 607.339844 802.761719 608.136719 803.609375 608.910156 C 804.453125 609.683594 805.316406 610.4375 806.203125 611.167969 C 807.085938 611.898438 807.988281 612.605469 808.90625 613.292969 C 809.828125 613.976562 810.765625 614.636719 811.71875 615.273438 C 812.671875 615.910156 813.640625 616.523438 814.628906 617.109375 C 815.613281 617.695312 816.613281 618.257812 817.625 618.796875 C 818.640625 619.332031 819.667969 619.839844 820.707031 620.324219 C 821.746094 620.808594 822.796875 621.265625 823.859375 621.695312 C 824.921875 622.125 825.996094 622.527344 827.082031 622.902344 C 828.164062 623.277344 829.257812 623.625 830.359375 623.945312 C 831.460938 624.261719 832.570312 624.554688 833.6875 624.816406 C 834.800781 625.078125 835.925781 625.3125 837.050781 625.519531 C 838.179688 625.722656 839.3125 625.898438 840.453125 626.046875 C 841.589844 626.195312 842.730469 626.3125 843.871094 626.402344 C 845.015625 626.488281 846.160156 626.550781 847.308594 626.582031 C 848.453125 626.609375 849.601562 626.613281 850.746094 626.582031 C 851.894531 626.554688 853.039062 626.5 854.179688 626.410156 C 855.324219 626.324219 856.464844 626.210938 857.601562 626.0625 C 858.742188 625.917969 859.875 625.746094 861.003906 625.542969 C 862.132812 625.339844 863.253906 625.109375 864.371094 624.847656 C 865.488281 624.585938 866.597656 624.300781 867.699219 623.980469 C 868.800781 623.664062 869.894531 623.320312 870.980469 622.949219 C 872.0625 622.574219 873.136719 622.175781 874.203125 621.746094 C 875.265625 621.320312 876.320312 620.863281 877.359375 620.382812 C 878.402344 619.902344 879.429688 619.394531 880.445312 618.859375 C 881.457031 618.324219 882.460938 617.765625 883.445312 617.179688 C 884.429688 616.59375 885.402344 615.984375 886.359375 615.351562 C 887.3125 614.714844 888.25 614.058594 889.171875 613.375 C 890.09375 612.691406 890.996094 611.984375 891.882812 611.257812 C 892.769531 610.527344 893.632812 609.777344 894.480469 609.003906 C 895.328125 608.230469 896.15625 607.4375 896.960938 606.621094 C 897.765625 605.804688 898.550781 604.96875 899.316406 604.113281 C 900.078125 603.257812 900.820312 602.382812 901.539062 601.488281 C 902.257812 600.597656 902.953125 599.683594 903.628906 598.757812 C 904.300781 597.828125 904.949219 596.882812 905.570312 595.917969 C 906.195312 594.957031 906.792969 593.980469 907.367188 592.988281 C 907.941406 591.996094 908.492188 590.988281 909.015625 589.964844 C 909.535156 588.945312 910.03125 587.914062 910.503906 586.867188 C 910.972656 585.820312 911.414062 584.761719 911.832031 583.695312 C 912.246094 582.625 912.636719 581.546875 912.996094 580.457031 C 913.355469 579.367188 913.6875 578.273438 913.992188 577.167969 C 914.296875 576.0625 914.574219 574.949219 914.820312 573.828125 C 915.070312 572.707031 915.289062 571.582031 915.480469 570.453125 C 915.667969 569.320312 915.832031 568.1875 915.960938 567.046875 C 916.09375 565.90625 916.199219 564.765625 916.273438 563.621094 C 916.34375 562.476562 916.390625 561.332031 916.40625 560.183594 C 916.421875 559.039062 916.40625 557.890625 916.363281 556.746094 C 916.320312 555.597656 916.246094 554.457031 916.144531 553.3125 C 916.042969 552.171875 915.914062 551.03125 915.753906 549.894531 C 915.59375 548.761719 915.402344 547.628906 915.1875 546.503906 C 914.96875 545.378906 914.722656 544.257812 914.445312 543.144531 C 914.171875 542.03125 913.867188 540.925781 913.535156 539.828125 C 913.207031 538.730469 912.847656 537.640625 912.460938 536.5625 C 912.070312 535.484375 911.65625 534.414062 911.214844 533.355469 C 910.773438 532.296875 910.304688 531.25 909.808594 530.214844 C 909.316406 529.183594 908.792969 528.160156 908.246094 527.152344 C 907.699219 526.144531 907.125 525.152344 906.527344 524.175781 C 905.929688 523.195312 905.304688 522.234375 904.660156 521.285156 C 904.011719 520.339844 903.339844 519.410156 902.644531 518.5 C 901.949219 517.585938 901.234375 516.691406 900.492188 515.816406 C 899.75 514.941406 898.988281 514.085938 898.203125 513.246094 C 897.421875 512.410156 896.613281 511.59375 895.789062 510.800781 C 894.964844 510.003906 894.117188 509.230469 893.25 508.476562 C 892.386719 507.726562 891.5 506.996094 890.597656 506.289062 C 889.695312 505.582031 888.773438 504.898438 887.835938 504.238281 C 886.898438 503.578125 885.945312 502.941406 884.976562 502.332031 C 884.003906 501.71875 883.019531 501.132812 882.019531 500.574219 C 881.019531 500.011719 880.003906 499.476562 878.976562 498.96875 C 877.949219 498.460938 876.910156 497.976562 875.855469 497.519531 C 874.804688 497.066406 873.742188 496.636719 872.667969 496.234375 C 871.59375 495.832031 870.507812 495.457031 869.417969 495.113281 C 868.324219 494.765625 867.222656 494.449219 866.113281 494.160156 C 865.003906 493.867188 863.886719 493.605469 862.761719 493.375 C 861.640625 493.140625 860.511719 492.9375 859.378906 492.761719 C 858.246094 492.585938 857.109375 492.441406 855.96875 492.324219 C 854.828125 492.207031 853.683594 492.117188 852.539062 492.058594 C 851.394531 492 850.246094 491.972656 849.101562 491.972656 Z M 849.183594 491.972656 " fill-opacity="1" fill-rule="nonzero"/></g></svg>